<svg xmlns="http://www.w3.org/2000/svg" xmlns:svg="http://www.w3.org/2000/svg" id="Calque_1" width="349.1" height="289.455" x="0" y="0" version="1.1" viewBox="0 0 349.1 289.455" xml:space="preserve"><style id="style1" type="text/css">.st1{display:none}.st2{fill:none;stroke:#ff9f00;stroke-width:8;stroke-linecap:round;stroke-miterlimit:10}.st3{stroke:#000;stroke-width:13.0006;stroke-miterlimit:10.0005}.st3,.st4{fill:#fff}.st5,.st6{stroke-miterlimit:10}.st5{fill:#fff;stroke:#000;stroke-width:13;stroke-linecap:round}.st6{fill:none;stroke:red;stroke-width:8}.st7,.st8{stroke:#000}.st7{fill:none;stroke-width:8;stroke-miterlimit:10}.st8{stroke-width:9}.st10,.st8,.st9{fill:none;stroke-miterlimit:10}.st9{stroke:#000;stroke-width:9;stroke-linecap:round}.st10{stroke:#fff;stroke-width:13}.st11,.st12,.st13{stroke:#000;stroke-miterlimit:10}.st11{fill:#ff9f00;stroke-width:9}.st12,.st13{stroke-width:2;stroke-linejoin:round}.st12{display:inline;fill:#fff}.st13{fill:none;stroke-linecap:round}.st13,.st14{display:inline}.st14,.st15,.st16,.st17{fill:none;stroke:#000;stroke-linejoin:round;stroke-miterlimit:10}.st16{stroke-width:5}.st17{stroke-width:4}.st17,.st18{display:none}.st18,.st19{fill:none;stroke:#000;stroke-width:4;stroke-linecap:round;stroke-linejoin:round;stroke-miterlimit:10}</style><g id="Calque_2_1_" transform="translate(-647,-939.34484)" style="display:inline"><path id="path1" d="m 651,1018.2 c 12.9,-0.4 25.8,-0.9 38.7,-1.3" class="st2"/><path id="path2" d="m 654,1042 c 12.6,-6.6 25.3,-13.2 37.9,-19.8" class="st2"/><ellipse id="ellipse2" cx="805" cy="1066.7" class="st3" rx="87.7" ry="126" transform="matrix(0.6447,-0.7645,0.7645,0.6447,-529.3889,994.3997)"/><rect id="rect2" width="29.3" height="99" x="874.5" y="986.8" class="st4" transform="matrix(0.8456,-0.5339,0.5339,0.8456,-415.9344,634.7301)"/><path id="path3" d="m 836,1097 c 45.2,-13 86.1,-15.6 111.7,-26.3 10.7,-4.5 31.1,-19.8 34.1,-28.7 1.7,-5 4.7,-7 0.6,-12.2 -4.3,-5.5 -6.3,-12.2 -21,-9.8 -10.7,1.8 -27.9,8.6 -28.4,7.3 -0.9,-2.1 16.8,-9.3 16.1,-16.3 -0.5,-4.7 -10,-8.3 -18,-9 -19.1,-1.6 -35,13.4 -36,12 -0.8,-1.2 11.9,-8.9 18,-24 2.1,-5.3 -0.1,-3.8 -1.9,-6.4 -5.4,-7.7 -32.9,-1 -51.1,8.4 -12.6,6.5 -31,18 -50,38" class="st5"/><path id="path4" d="M 683,1024" class="st6"/><path id="path5" d="M 692.8,1016.2" class="st6"/><path id="path6" d="M 884.9,984.1" class="st7"/><path id="path7" d="M 949.9,1202.9 C 927,1190.3 904.2,1177.6 881.3,1165" class="st8"/><path id="path8" d="m 974.1,1169.9 c -21.3,-9.7 -42.6,-19.4 -63.8,-29" class="st7"/><path id="path9" d="m 951.6,1224.3 c -2.7,-8.9 -5.3,-17.7 -8,-26.6" class="st9"/><path id="path10" d="m 967.4,1214.6 c -7.8,-5 -15.6,-10 -23.3,-15" class="st9"/><path id="path11" d="m 965.5,1196.9 c -7.8,0.2 -15.6,0.5 -23.3,0.7" class="st9"/><path id="path12" d="m 987.6,1176.3 c -5.9,-3.2 -11.8,-6.3 -17.7,-9.5" class="st9"/><path id="path13" d="m 991.6,1159.9 c -9.1,1.7 -18.2,3.3 -27.3,5" class="st9"/><path id="path14" d="m 971.7,1187.6 c -1.6,-6.3 -3.2,-12.7 -4.8,-19" class="st9"/><path id="path15" d="M 648,1018.2" class="st6"/><circle id="circle15" cx="726.9" cy="1010.1" r="7.8"/><path id="path16" d="M 909.6,1079.4" class="st10"/></g><g id="Calque_3" transform="translate(-647,-939.34484)" style="display:inline"><path id="path17" d="m 790.2,990.3 c 5.9,-12.4 5.4,-26.3 -1.8,-35.6 -12.3,-15.9 -40,-12.7 -50.7,-0.9 -5.4,6 -3.1,15.3 -1.8,14.1" class="st8"/><circle id="circle17" cx="785.3" cy="1003.6" r="12.9" class="st11"/></g><g id="Calque_4" class="st1" transform="translate(-647,-939.34484)"><path id="path18" d="m 842.3,1145.3 h -42.4 c -2.1,0 -3.8,-1.7 -3.8,-3.8 v -22.1 c 0,-2.1 1.7,-3.8 3.8,-3.8 h 42.4 c 2.1,0 3.8,1.7 3.8,3.8 v 22.1 c 0,2.1 -1.7,3.8 -3.8,3.8 z" class="st12"/><line id="line18" x1="796.6" x2="832.2" y1="1123.8" y2="1123.8" class="st13"/><path id="path19" d="m 836.4,1140.2 h -30.6 c -1.3,0 -2.4,-1.1 -2.4,-2.4 v -6.5 c 0,-1.3 1.1,-2.4 2.4,-2.4 h 30.6 c 1.3,0 2.4,1.1 2.4,2.4 v 6.5 c -0.1,1.4 -1.1,2.4 -2.4,2.4 z" class="st12"/><path id="path20" d="m 795,1127.9 h -2.6 c -0.6,0 -1,-0.5 -1,-1 v -0.6 c 0,-0.6 0.5,-1 1,-1 h 2.6 c 0.6,0 1,0.5 1,1 v 0.6 c 0,0.6 -0.4,1 -1,1 z" class="st14"/><rect id="rect20" width="10" height="4.7" x="828.6" y="1111.2" class="st14"/><line id="line20" x1="837" x2="845.7" y1="1123.8" y2="1123.8" class="st13"/></g><g id="Calque_6" transform="translate(-647,-939.34484)" style="display:inline"><path id="path21" d="m 791.4,1126.6 c -23.9,0.3 -20.9,-19.3 -18.9,-23.2 2.3,-4.6 5.1,-5.5 15.3,-11.3 9.2,-5.3 17.4,-15.7 14.5,-21 -3.6,-6.4 -20,0.6 -40.4,-8.3 -8.3,-3.6 -13.1,-8.8 -11.8,-14.3 1.3,-5.5 19.4,-6.3 28.2,-15.1 5.6,-5.6 4.1,-11.8 4.4,-17.1" class="st15"/></g><g id="Calque_5" transform="translate(-647,-939.34484)" style="display:inline"><rect id="rect21" width="30.9" height="20.3" x="791.6" y="1116.7" class="st16"/><circle id="circle21" cx="811.8" cy="1126.9" r="4.3" class="st17"/></g><g id="Calque_7" transform="translate(-647,-939.34484)" style="display:inline"><path id="path22" d="M 823.7,1109.8" class="st18"/><rect id="rect22" width="32.4" height="15.6" x="805" y="1123.6" class="st4" transform="matrix(0.5655,-0.8247,0.8247,0.5655,-576.345,1168.8507)"/><path id="path23" d="m 822.4,1108.7 c -1.7,16.7 -11.3,28.4 -28.2,35.3" class="st19"/></g></svg>